<?xml version="1.0" standalone="no"?>
<!DOCTYPE svg PUBLIC "-//W3C//DTD SVG 20010904//EN" "http://www.w3.org/TR/2001/REC-SVG-20010904/DTD/svg10.dtd">
<svg version="1.0" xmlns="http://www.w3.org/2000/svg" width="768.000000pt" height="768.000000pt"
  viewBox="0 0 768.000000 768.000000" preserveAspectRatio="xMidYMid meet">
  <metadata>
    Created by potrace 1.14, written by Peter Selinger 2001-2017
  </metadata>
  <g transform="translate(0.000000,768.000000) scale(0.100000,-0.100000)" fill="#000000" stroke="none">
    <path d="M1815 6975 c-14 -13 -25 -30 -25 -37 0 -7 -43 -380 -95 -827 -86
-733 -94 -817 -80 -837 8 -12 22 -25 32 -28 10 -3 160 -26 333 -51 304 -44
315 -45 338 -28 17 13 82 166 238 558 118 297 221 545 228 550 14 11 1942 112
1952 103 3 -3 -81 -106 -187 -229 l-193 -223 -1504 -2295 c-828 -1263 -1525
-2329 -1550 -2369 l-45 -73 17 -35 c38 -80 250 -431 273 -451 l24 -23 2305 0
2305 0 24 25 c14 13 25 30 25 38 0 8 43 424 95 926 67 650 92 919 85 932 -6
10 -18 23 -28 28 -9 5 -162 39 -339 75 -359 75 -352 75 -383 3 -10 -23 -113
-305 -230 -627 -117 -322 -217 -590 -224 -596 -7 -7 -430 -38 -1116 -83 -608
-40 -1134 -75 -1170 -78 l-65 -6 230 234 230 234 1502 2331 c826 1281 1507
2342 1514 2356 10 24 2 48 -91 255 -57 126 -113 238 -127 251 l-24 22 -2125 0
-2125 0 -24 -25z" />
  </g>
</svg>